<mxfile host="app.diagrams.net" modified="2024-01-29T04:43:27.830Z" agent="Mozilla/5.0 (Macintosh; Intel Mac OS X 10_15_7) AppleWebKit/537.36 (KHTML, like Gecko) Chrome/121.0.0.0 Safari/537.36" etag="FwbeoXFASvl73g7EdSKi" version="21.6.6" type="device">
  <diagram name="Page-1" id="iUM964dhSpFM8SjVnN2g">
    <mxGraphModel dx="1434" dy="690" grid="1" gridSize="10" guides="1" tooltips="1" connect="1" arrows="1" fold="1" page="1" pageScale="1" pageWidth="850" pageHeight="1100" math="0" shadow="0">
      <root>
        <mxCell id="0" />
        <mxCell id="1" parent="0" />
        <mxCell id="ywrwNOs_BQkq8wiRAcHL-15" value="" style="rounded=0;whiteSpace=wrap;html=1;" vertex="1" parent="1">
          <mxGeometry x="130" y="70" width="560" height="290" as="geometry" />
        </mxCell>
        <mxCell id="ywrwNOs_BQkq8wiRAcHL-14" value="" style="rounded=0;whiteSpace=wrap;html=1;" vertex="1" parent="1">
          <mxGeometry x="130" y="390" width="560" height="125" as="geometry" />
        </mxCell>
        <mxCell id="ywrwNOs_BQkq8wiRAcHL-23" value="Codespace&lt;br&gt;(Virtual Machine)" style="rounded=0;whiteSpace=wrap;html=1;verticalAlign=top;align=left;fontStyle=5" vertex="1" parent="1">
          <mxGeometry x="330" y="80" width="330" height="270" as="geometry" />
        </mxCell>
        <mxCell id="ywrwNOs_BQkq8wiRAcHL-48" value="Repo Copy in Codespace" style="rounded=0;whiteSpace=wrap;html=1;align=left;verticalAlign=top;fontStyle=5" vertex="1" parent="1">
          <mxGeometry x="340" y="120" width="120" height="90" as="geometry" />
        </mxCell>
        <mxCell id="ywrwNOs_BQkq8wiRAcHL-49" value="Docker Container" style="rounded=0;whiteSpace=wrap;html=1;verticalAlign=top;fontStyle=5;align=left;" vertex="1" parent="1">
          <mxGeometry x="470" y="123" width="180" height="86" as="geometry" />
        </mxCell>
        <mxCell id="ywrwNOs_BQkq8wiRAcHL-50" value="Docker Container" style="rounded=0;whiteSpace=wrap;html=1;verticalAlign=top;fontStyle=5;align=left;fontSize=12;" vertex="1" parent="1">
          <mxGeometry x="470" y="230" width="180" height="110" as="geometry" />
        </mxCell>
        <mxCell id="ywrwNOs_BQkq8wiRAcHL-24" value="Postgres DB" style="image;sketch=0;aspect=fixed;html=1;points=[];align=center;fontSize=12;image=img/lib/mscae/Azure_Database_for_PostgreSQL_servers.svg;" vertex="1" parent="1">
          <mxGeometry x="586" y="250" width="38" height="50" as="geometry" />
        </mxCell>
        <mxCell id="ywrwNOs_BQkq8wiRAcHL-51" style="edgeStyle=orthogonalEdgeStyle;rounded=0;orthogonalLoop=1;jettySize=auto;html=1;exitX=0.75;exitY=1;exitDx=0;exitDy=0;" edge="1" parent="1" source="ywrwNOs_BQkq8wiRAcHL-49" target="ywrwNOs_BQkq8wiRAcHL-24">
          <mxGeometry relative="1" as="geometry" />
        </mxCell>
        <mxCell id="ywrwNOs_BQkq8wiRAcHL-52" value="Query data" style="edgeLabel;html=1;align=center;verticalAlign=middle;resizable=0;points=[];" vertex="1" connectable="0" parent="ywrwNOs_BQkq8wiRAcHL-51">
          <mxGeometry x="-0.25" y="1" relative="1" as="geometry">
            <mxPoint x="-1" y="-5" as="offset" />
          </mxGeometry>
        </mxCell>
        <mxCell id="ywrwNOs_BQkq8wiRAcHL-56" value="Docker Conatiner" style="rounded=0;whiteSpace=wrap;html=1;align=left;verticalAlign=top;fontStyle=5" vertex="1" parent="1">
          <mxGeometry x="340" y="230" width="120" height="110" as="geometry" />
        </mxCell>
        <mxCell id="ywrwNOs_BQkq8wiRAcHL-6" value="Untitled Layer" parent="0" />
        <mxCell id="ywrwNOs_BQkq8wiRAcHL-8" value="GitHub" style="dashed=0;outlineConnect=0;html=1;align=center;labelPosition=center;verticalLabelPosition=bottom;verticalAlign=top;shape=mxgraph.weblogos.github" vertex="1" parent="ywrwNOs_BQkq8wiRAcHL-6">
          <mxGeometry x="137.87" y="80" width="55.71" height="60" as="geometry" />
        </mxCell>
        <mxCell id="ywrwNOs_BQkq8wiRAcHL-9" value="Local Machine" style="verticalLabelPosition=bottom;sketch=0;aspect=fixed;html=1;verticalAlign=top;strokeColor=none;align=center;outlineConnect=0;shape=mxgraph.citrix.desktop;" vertex="1" parent="ywrwNOs_BQkq8wiRAcHL-6">
          <mxGeometry x="150" y="400" width="43.58" height="47.99" as="geometry" />
        </mxCell>
        <mxCell id="ywrwNOs_BQkq8wiRAcHL-29" style="edgeStyle=orthogonalEdgeStyle;rounded=0;orthogonalLoop=1;jettySize=auto;html=1;entryX=0.5;entryY=1;entryDx=0;entryDy=0;" edge="1" parent="ywrwNOs_BQkq8wiRAcHL-6" source="ywrwNOs_BQkq8wiRAcHL-10" target="ywrwNOs_BQkq8wiRAcHL-23">
          <mxGeometry relative="1" as="geometry" />
        </mxCell>
        <mxCell id="ywrwNOs_BQkq8wiRAcHL-30" value="Connect to codespace" style="edgeLabel;html=1;align=center;verticalAlign=middle;resizable=0;points=[];" vertex="1" connectable="0" parent="ywrwNOs_BQkq8wiRAcHL-29">
          <mxGeometry x="0.05" relative="1" as="geometry">
            <mxPoint as="offset" />
          </mxGeometry>
        </mxCell>
        <mxCell id="ywrwNOs_BQkq8wiRAcHL-10" value="VSCode" style="shape=image;verticalLabelPosition=bottom;labelBackgroundColor=default;verticalAlign=top;aspect=fixed;imageAspect=0;image=https://upload.wikimedia.org/wikipedia/commons/thumb/9/9a/Visual_Studio_Code_1.35_icon.svg/512px-Visual_Studio_Code_1.35_icon.svg.png;" vertex="1" parent="ywrwNOs_BQkq8wiRAcHL-6">
          <mxGeometry x="467.5" y="430" width="55" height="55" as="geometry" />
        </mxCell>
        <mxCell id="ywrwNOs_BQkq8wiRAcHL-43" style="edgeStyle=orthogonalEdgeStyle;rounded=0;orthogonalLoop=1;jettySize=auto;html=1;entryX=0;entryY=0.5;entryDx=0;entryDy=0;startArrow=classic;startFill=1;" edge="1" parent="ywrwNOs_BQkq8wiRAcHL-6" source="ywrwNOs_BQkq8wiRAcHL-19" target="ywrwNOs_BQkq8wiRAcHL-48">
          <mxGeometry relative="1" as="geometry" />
        </mxCell>
        <mxCell id="ywrwNOs_BQkq8wiRAcHL-44" value="Sync changes" style="edgeLabel;html=1;align=center;verticalAlign=middle;resizable=0;points=[];" vertex="1" connectable="0" parent="ywrwNOs_BQkq8wiRAcHL-43">
          <mxGeometry x="-0.1911" relative="1" as="geometry">
            <mxPoint x="1" y="-11" as="offset" />
          </mxGeometry>
        </mxCell>
        <mxCell id="ywrwNOs_BQkq8wiRAcHL-19" value="Repo&lt;br&gt;(The source code)" style="rounded=0;whiteSpace=wrap;html=1;" vertex="1" parent="ywrwNOs_BQkq8wiRAcHL-6">
          <mxGeometry x="137.87" y="185" width="100" height="60" as="geometry" />
        </mxCell>
        <mxCell id="ywrwNOs_BQkq8wiRAcHL-25" value="" style="shape=image;verticalLabelPosition=bottom;labelBackgroundColor=default;verticalAlign=top;aspect=fixed;imageAspect=0;image=https://img.thingsboard.io/reference/performance-aws-instances/method/pgadmin/pgadmin-starting.png;" vertex="1" parent="ywrwNOs_BQkq8wiRAcHL-6">
          <mxGeometry x="475" y="149" width="170" height="48.06" as="geometry" />
        </mxCell>
        <mxCell id="ywrwNOs_BQkq8wiRAcHL-40" style="edgeStyle=orthogonalEdgeStyle;rounded=0;orthogonalLoop=1;jettySize=auto;html=1;" edge="1" parent="ywrwNOs_BQkq8wiRAcHL-6" source="ywrwNOs_BQkq8wiRAcHL-31" target="ywrwNOs_BQkq8wiRAcHL-24">
          <mxGeometry relative="1" as="geometry" />
        </mxCell>
        <mxCell id="ywrwNOs_BQkq8wiRAcHL-41" value="Write data" style="edgeLabel;html=1;align=center;verticalAlign=middle;resizable=0;points=[];" vertex="1" connectable="0" parent="ywrwNOs_BQkq8wiRAcHL-40">
          <mxGeometry x="-0.1649" y="1" relative="1" as="geometry">
            <mxPoint x="16" y="15" as="offset" />
          </mxGeometry>
        </mxCell>
        <mxCell id="ywrwNOs_BQkq8wiRAcHL-31" value="ELT Scripts" style="verticalLabelPosition=bottom;html=1;verticalAlign=top;align=center;strokeColor=none;fillColor=#00BEF2;shape=mxgraph.azure.script_file;pointerEvents=1;" vertex="1" parent="ywrwNOs_BQkq8wiRAcHL-6">
          <mxGeometry x="390" y="260" width="20" height="30" as="geometry" />
        </mxCell>
        <mxCell id="ywrwNOs_BQkq8wiRAcHL-45" style="edgeStyle=orthogonalEdgeStyle;rounded=0;orthogonalLoop=1;jettySize=auto;html=1;entryX=0;entryY=0.5;entryDx=0;entryDy=0;entryPerimeter=0;" edge="1" parent="ywrwNOs_BQkq8wiRAcHL-6" source="ywrwNOs_BQkq8wiRAcHL-38" target="ywrwNOs_BQkq8wiRAcHL-31">
          <mxGeometry relative="1" as="geometry" />
        </mxCell>
        <mxCell id="ywrwNOs_BQkq8wiRAcHL-46" value="Extract &amp;amp; Load data" style="edgeLabel;html=1;align=center;verticalAlign=middle;resizable=0;points=[];" vertex="1" connectable="0" parent="ywrwNOs_BQkq8wiRAcHL-45">
          <mxGeometry x="0.1429" y="2" relative="1" as="geometry">
            <mxPoint x="-73" y="16" as="offset" />
          </mxGeometry>
        </mxCell>
        <mxCell id="ywrwNOs_BQkq8wiRAcHL-38" value="NYC Taxi&lt;br&gt;(Data Source)" style="ellipse;shape=cloud;whiteSpace=wrap;html=1;" vertex="1" parent="ywrwNOs_BQkq8wiRAcHL-6">
          <mxGeometry y="235" width="120" height="80" as="geometry" />
        </mxCell>
        <mxCell id="ywrwNOs_BQkq8wiRAcHL-47" value="Week 1 Data Architecture" style="text;html=1;strokeColor=none;fillColor=none;align=center;verticalAlign=middle;whiteSpace=wrap;rounded=0;fontStyle=5;fontSize=16;" vertex="1" parent="ywrwNOs_BQkq8wiRAcHL-6">
          <mxGeometry x="318" y="20" width="215" height="30" as="geometry" />
        </mxCell>
        <mxCell id="ywrwNOs_BQkq8wiRAcHL-55" value="Configs (Dockerfile...)" style="verticalLabelPosition=bottom;html=1;verticalAlign=top;align=center;strokeColor=none;fillColor=#00BEF2;shape=mxgraph.azure.script_file;pointerEvents=1;" vertex="1" parent="ywrwNOs_BQkq8wiRAcHL-6">
          <mxGeometry x="387" y="157" width="23" height="33" as="geometry" />
        </mxCell>
      </root>
    </mxGraphModel>
  </diagram>
</mxfile>
